<?xml version="1.0" standalone="no"?>
<!DOCTYPE svg PUBLIC "-//W3C//DTD SVG 20010904//EN"
 "http://www.w3.org/TR/2001/REC-SVG-20010904/DTD/svg10.dtd">
<svg version="1.0" xmlns="http://www.w3.org/2000/svg"
 width="700.000000pt" height="700.000000pt" viewBox="0 0 700.000000 700.000000"
 preserveAspectRatio="xMidYMid meet">
<metadata>
Created by potrace 1.11, written by Peter Selinger 2001-2013
</metadata>
<g transform="translate(0.000000,700.000000) scale(0.100000,-0.100000)"
fill="#000000" stroke="none">
<path d="M1415 5615 c-216 -53 -388 -231 -429 -445 -10 -50 -12 -367 -11
-1385 0 -726 5 -1342 9 -1370 4 -27 26 -88 48 -134 77 -162 241 -288 410 -317
56 -10 4048 -10 4111 -1 116 18 241 89 326 184 50 56 115 167 125 213 3 14 10
45 15 70 6 27 9 574 8 1390 l-2 1345 -22 66 c-51 149 -175 287 -318 352 -104
48 -39 47 -2195 46 -1565 -1 -2036 -4 -2075 -14z m4112 -475 c17 -16 33 -44
37 -61 3 -17 6 -600 6 -1296 0 -1375 3 -1309 -56 -1348 -28 -19 -68 -20 -2014
-20 -1969 0 -1985 0 -2012 20 -58 43 -55 -32 -54 1367 l1 1287 21 28 c11 15
32 34 45 40 19 10 451 13 2010 13 l1985 0 31 -30z"/>
<path d="M55 1540 c1 -102 5 -201 9 -220 15 -63 64 -120 148 -173 97 -61 196
-92 333 -105 44 -4 1394 -7 3000 -6 3094 1 2969 -1 3110 46 102 35 162 72 223
137 61 65 66 85 68 304 1 108 -1 198 -5 198 -3 1 -1554 2 -3446 3 l-3441 1 1
-185z m3757 -49 c15 -1 28 -23 34 -59 1 -8 -6 -22 -17 -33 -18 -18 -36 -19
-327 -19 -232 0 -312 3 -324 13 -34 27 -27 81 13 95 15 6 550 8 621 3z"/>
</g>
</svg>
